<svg width="22" height="22" viewBox="0 0 22 22" fill="none" xmlns="http://www.w3.org/2000/svg">
<g clip-path="url(#clip0_126_1983)">
<path d="M18.3333 1.83337H3.66665C2.65831 1.83337 1.84248 2.65837 1.84248 3.66671L1.83331 20.1667L5.49998 16.5H18.3333C19.3416 16.5 20.1666 15.675 20.1666 14.6667V3.66671C20.1666 2.65837 19.3416 1.83337 18.3333 1.83337ZM6.41665 8.25004H15.5833C16.0875 8.25004 16.5 8.66254 16.5 9.16671C16.5 9.67087 16.0875 10.0834 15.5833 10.0834H6.41665C5.91248 10.0834 5.49998 9.67087 5.49998 9.16671C5.49998 8.66254 5.91248 8.25004 6.41665 8.25004ZM11.9166 12.8334H6.41665C5.91248 12.8334 5.49998 12.4209 5.49998 11.9167C5.49998 11.4125 5.91248 11 6.41665 11H11.9166C12.4208 11 12.8333 11.4125 12.8333 11.9167C12.8333 12.4209 12.4208 12.8334 11.9166 12.8334ZM15.5833 7.33337H6.41665C5.91248 7.33337 5.49998 6.92087 5.49998 6.41671C5.49998 5.91254 5.91248 5.50004 6.41665 5.50004H15.5833C16.0875 5.50004 16.5 5.91254 16.5 6.41671C16.5 6.92087 16.0875 7.33337 15.5833 7.33337Z" fill="white"/>
</g>
<defs>
<clipPath id="clip0_126_1983">
<rect width="22" height="22" fill="white"/>
</clipPath>
</defs>
</svg>
