<svg width="21" height="24" viewBox="0 0 21 24" fill="none" xmlns="http://www.w3.org/2000/svg">
<path d="M10.5009 14.9626C11.9318 14.9626 13.0918 13.6231 13.0918 11.9706C13.0918 10.3182 11.9318 8.97864 10.5009 8.97864C9.06996 8.97864 7.90997 10.3182 7.90997 11.9706C7.90997 13.6231 9.06996 14.9626 10.5009 14.9626Z" stroke="#838591" stroke-width="1.90288" stroke-linecap="round" stroke-linejoin="round"/>
<path d="M16.8909 14.9626C16.7759 15.2634 16.7417 15.5971 16.7925 15.9206C16.8432 16.2442 16.9768 16.5427 17.1759 16.7778L17.2277 16.8376C17.3883 17.0228 17.5157 17.2428 17.6026 17.485C17.6896 17.7271 17.7343 17.9867 17.7343 18.2488C17.7343 18.5109 17.6896 18.7705 17.6026 19.0127C17.5157 19.2548 17.3883 19.4748 17.2277 19.66C17.0673 19.8455 16.8768 19.9926 16.6671 20.093C16.4574 20.1934 16.2327 20.245 16.0057 20.245C15.7787 20.245 15.5539 20.1934 15.3442 20.093C15.1346 19.9926 14.9441 19.8455 14.7836 19.66L14.7318 19.6002C14.5283 19.3703 14.2698 19.216 13.9896 19.1574C13.7094 19.0987 13.4205 19.1383 13.16 19.2711C12.9046 19.3975 12.6867 19.6074 12.5333 19.875C12.3798 20.1426 12.2975 20.4561 12.2964 20.777V20.9466C12.2964 21.4756 12.1144 21.983 11.7905 22.357C11.4665 22.7311 11.0272 22.9413 10.5691 22.9413C10.111 22.9413 9.67165 22.7311 9.34773 22.357C9.0238 21.983 8.84182 21.4756 8.84182 20.9466V20.8568C8.83513 20.5267 8.7426 20.2066 8.57626 19.938C8.40992 19.6694 8.17745 19.4648 7.90909 19.3509C7.6486 19.2181 7.35965 19.1785 7.07949 19.2372C6.79933 19.2958 6.54081 19.4501 6.33727 19.68L6.28545 19.7398C6.12504 19.9253 5.93454 20.0724 5.72485 20.1728C5.51516 20.2732 5.2904 20.3248 5.06341 20.3248C4.83642 20.3248 4.61165 20.2732 4.40197 20.1728C4.19228 20.0724 4.00178 19.9253 3.84136 19.7398C3.68077 19.5546 3.55337 19.3346 3.46644 19.0924C3.37952 18.8503 3.33478 18.5907 3.33478 18.3286C3.33478 18.0665 3.37952 17.8069 3.46644 17.5648C3.55337 17.3226 3.68077 17.1026 3.84136 16.9174L3.89318 16.8575C4.09228 16.6225 4.22584 16.324 4.27664 16.0004C4.32744 15.6769 4.29314 15.3432 4.17818 15.0424C4.0687 14.7474 3.88693 14.4958 3.65522 14.3186C3.42351 14.1414 3.152 14.0464 2.87409 14.0451H2.72727C2.26917 14.0451 1.82983 13.8349 1.50591 13.4608C1.18198 13.0868 1 12.5794 1 12.0504C1 11.5214 1.18198 11.014 1.50591 10.64C1.82983 10.2659 2.26917 10.0558 2.72727 10.0558H2.805C3.09086 10.048 3.3681 9.94118 3.60067 9.74909C3.83324 9.55699 4.01039 9.28854 4.10909 8.97864C4.22405 8.67783 4.25835 8.34414 4.20755 8.02061C4.15675 7.69709 4.02319 7.39855 3.82409 7.1635L3.77227 7.10366C3.61168 6.91841 3.48428 6.69842 3.39735 6.45627C3.31043 6.21412 3.26569 5.95457 3.26569 5.69244C3.26569 5.43031 3.31043 5.17075 3.39735 4.9286C3.48428 4.68645 3.61168 4.46646 3.77227 4.28121C3.93269 4.09576 4.12319 3.94863 4.33288 3.84825C4.54256 3.74787 4.76733 3.69621 4.99432 3.69621C5.22131 3.69621 5.44607 3.74787 5.65576 3.84825C5.86545 3.94863 6.05595 4.09576 6.21636 4.28121L6.26818 4.34105C6.47172 4.57098 6.73024 4.72521 7.0104 4.78387C7.29056 4.84254 7.57951 4.80293 7.84 4.67017H7.90909C8.16453 4.54375 8.38238 4.33383 8.53583 4.06626C8.68927 3.79868 8.77162 3.48513 8.77273 3.16421V2.99466C8.77273 2.46564 8.95471 1.95829 9.27863 1.58422C9.60256 1.21015 10.0419 1 10.5 1C10.9581 1 11.3974 1.21015 11.7214 1.58422C12.0453 1.95829 12.2273 2.46564 12.2273 2.99466V3.08442C12.2284 3.40535 12.3107 3.7189 12.4642 3.98647C12.6176 4.25404 12.8355 4.46396 13.0909 4.59039C13.3514 4.72315 13.6403 4.76275 13.9205 4.70409C14.2007 4.64543 14.4592 4.49119 14.6627 4.26127L14.7145 4.20143C14.875 4.01597 15.0655 3.86885 15.2751 3.76847C15.4848 3.66809 15.7096 3.61642 15.9366 3.61642C16.1636 3.61642 16.3883 3.66809 16.598 3.76847C16.8077 3.86885 16.9982 4.01597 17.1586 4.20143C17.3192 4.38668 17.4466 4.60667 17.5336 4.84881C17.6205 5.09096 17.6652 5.35052 17.6652 5.61265C17.6652 5.87478 17.6205 6.13434 17.5336 6.37649C17.4466 6.61863 17.3192 6.83862 17.1586 7.02387L17.1068 7.08371C16.9077 7.31876 16.7742 7.6173 16.7234 7.94083C16.6726 8.26436 16.7069 8.59804 16.8218 8.89885V8.97864C16.9313 9.27362 17.1131 9.52519 17.3448 9.70239C17.5765 9.87959 17.848 9.97469 18.1259 9.97597H18.2727C18.7308 9.97597 19.1702 10.1861 19.4941 10.5602C19.818 10.9343 20 11.4416 20 11.9706C20 12.4996 19.818 13.007 19.4941 13.3811C19.1702 13.7551 18.7308 13.9653 18.2727 13.9653H18.195C17.9171 13.9666 17.6456 14.0617 17.4139 14.2389C17.1822 14.4161 17.0004 14.6676 16.8909 14.9626V14.9626Z" stroke="#838591" stroke-width="1.90288" stroke-linecap="round" stroke-linejoin="round"/>
</svg>
