<svg width="22" height="22" viewBox="0 0 22 22" fill="none" xmlns="http://www.w3.org/2000/svg">
<g clip-path="url(#clip0_126_1991)">
<path d="M11 1.83337C5.93998 1.83337 1.83331 5.94004 1.83331 11C1.83331 16.06 5.93998 20.1667 11 20.1667C16.06 20.1667 20.1666 16.06 20.1666 11C20.1666 5.94004 16.06 1.83337 11 1.83337ZM11 18.3334C6.95748 18.3334 3.66665 15.0425 3.66665 11C3.66665 6.95754 6.95748 3.66671 11 3.66671C15.0425 3.66671 18.3333 6.95754 18.3333 11C18.3333 15.0425 15.0425 18.3334 11 18.3334ZM10.0833 14.6667H11.9166V16.5H10.0833V14.6667ZM11.5591 5.53671C9.67081 5.26171 8.00248 6.42587 7.49831 8.09421C7.33331 8.62587 7.73665 9.16671 8.29581 9.16671H8.47915C8.85498 9.16671 9.15748 8.90087 9.28581 8.55254C9.57915 7.73671 10.45 7.17754 11.3941 7.37921C12.265 7.56254 12.9066 8.41504 12.8333 9.30421C12.7416 10.5325 11.3483 10.7984 10.5875 11.9442C10.5875 11.9534 10.5783 11.9534 10.5783 11.9625C10.5691 11.9809 10.56 11.99 10.5508 12.0084C10.4683 12.1459 10.3858 12.3017 10.3216 12.4667C10.3125 12.4942 10.2941 12.5125 10.285 12.54C10.2758 12.5584 10.2758 12.5767 10.2666 12.6042C10.1566 12.9159 10.0833 13.2917 10.0833 13.75H11.9166C11.9166 13.365 12.0175 13.0442 12.1733 12.7692C12.1916 12.7417 12.2008 12.7142 12.2191 12.6867C12.2925 12.5584 12.3841 12.4392 12.4758 12.3292C12.485 12.32 12.4941 12.3017 12.5033 12.2925C12.595 12.1825 12.6958 12.0817 12.8058 11.9809C13.6858 11.1467 14.8775 10.4684 14.63 8.71754C14.41 7.12254 13.1541 5.77504 11.5591 5.53671Z" fill="#838591"/>
</g>
<defs>
<clipPath id="clip0_126_1991">
<rect width="22" height="22" fill="white"/>
</clipPath>
</defs>
</svg>
