<svg width="22" height="22" viewBox="0 0 22 22" fill="none" xmlns="http://www.w3.org/2000/svg">
<g clip-path="url(#clip0_126_1986)">
<path d="M14.2084 12.8333H13.4842L13.2275 12.5858C14.3275 11.3025 14.8959 9.55163 14.5842 7.6908C14.1534 5.14246 12.0267 3.10746 9.46002 2.7958C5.58252 2.31913 2.31919 5.58246 2.79586 9.45996C3.10752 12.0266 5.14252 14.1533 7.69086 14.5841C9.55169 14.8958 11.3025 14.3275 12.5859 13.2275L12.8334 13.4841V14.2083L16.7292 18.1041C17.105 18.48 17.7192 18.48 18.095 18.1041C18.4709 17.7283 18.4709 17.1141 18.095 16.7383L14.2084 12.8333ZM8.70836 12.8333C6.42586 12.8333 4.58336 10.9908 4.58336 8.7083C4.58336 6.4258 6.42586 4.5833 8.70836 4.5833C10.9909 4.5833 12.8334 6.4258 12.8334 8.7083C12.8334 10.9908 10.9909 12.8333 8.70836 12.8333Z" fill="#838591"/>
</g>
<defs>
<clipPath id="clip0_126_1986">
<rect width="22" height="22" fill="white"/>
</clipPath>
</defs>
</svg>
