<svg width="19" height="19" viewBox="0 0 19 19" fill="none" xmlns="http://www.w3.org/2000/svg">
<g clip-path="url(#clip0_126_2004)">
<path d="M5.35169 3.65752L3.92669 2.30485L2.81044 3.37037L4.22752 4.72304L5.35169 3.65752ZM0.791687 7.93468H3.16669V9.44605H0.791687V7.93468ZM8.70835 0.415649H10.2917V2.64491H8.70835V0.415649ZM15.0734 2.30108L16.188 3.36432L14.7709 4.71699L13.6571 3.65299L15.0734 2.30108ZM13.6484 13.7232L15.0654 15.0834L16.1817 14.0179L14.7567 12.6653L13.6484 13.7232ZM15.8334 7.93468H18.2084V9.44605H15.8334V7.93468ZM9.50002 4.15627C6.8796 4.15627 4.75002 6.18906 4.75002 8.69037C4.75002 11.1917 6.8796 13.2245 9.50002 13.2245C12.1204 13.2245 14.25 11.1917 14.25 8.69037C14.25 6.18906 12.1204 4.15627 9.50002 4.15627ZM9.50002 11.7131C7.75044 11.7131 6.33335 10.3604 6.33335 8.69037C6.33335 7.02031 7.75044 5.66764 9.50002 5.66764C11.2496 5.66764 12.6667 7.02031 12.6667 8.69037C12.6667 10.3604 11.2496 11.7131 9.50002 11.7131ZM8.70835 14.7358H10.2917V16.9651H8.70835V14.7358ZM2.81044 14.0104L3.92669 15.0759L5.34377 13.7157L4.22752 12.6501L2.81044 14.0104Z" fill="#ED5F78"/>
</g>
<defs>
<clipPath id="clip0_126_2004">
<rect width="19" height="18.1364" fill="white"/>
</clipPath>
</defs>
</svg>
