<svg width="64" height="44" viewBox="0 0 64 44" fill="none" xmlns="http://www.w3.org/2000/svg">
<rect width="64" height="44" rx="10" fill="#ED5F78"/>
<path d="M46.1401 12.96L37.1101 15.96C31.0401 17.99 31.0401 21.3 37.1101 23.32L39.7901 24.21L40.6801 26.89C42.7001 32.96 46.0201 32.96 48.0401 26.89L51.0501 17.87C52.3901 13.82 50.1901 11.61 46.1401 12.96ZM46.4601 18.34L42.6601 22.16C42.5101 22.31 42.3201 22.38 42.1301 22.38C41.9401 22.38 41.7501 22.31 41.6001 22.16C41.3101 21.87 41.3101 21.39 41.6001 21.1L45.4001 17.28C45.6901 16.99 46.1701 16.99 46.4601 17.28C46.7501 17.57 46.7501 18.05 46.4601 18.34Z" fill="white"/>
</svg>
